<svg width="186" height="43" viewBox="0 0 186 43" fill="none" xmlns="http://www.w3.org/2000/svg">
<path d="M27.855 24.7077H17.4795L24.0318 16.8093H34.4073L27.855 24.7077Z" fill="white"/>
<path d="M40.6063 28.0043H34.1318V37.9533H40.6063V28.0043Z" fill="white"/>
<path d="M14.6803 3.61938L6.09961 12.2038V37.9534H27.8777V31.4789H12.5741V10.0939H34.1483V16.8094H40.6227V3.61938H14.6803Z" fill="white"/>
<path d="M52.1924 37.8609H63.5134V35.4209H54.9216V30.1627H62.3046V27.7264H54.9216V22.4905H63.5134V20.0542H52.1924V37.8609Z" fill="white"/>
<path d="M115.108 29.421H113.814C115.65 28.8648 116.618 27.4149 116.618 25.1937C116.618 20.6623 113.065 20.0542 109.591 20.0542H103.554V37.8609H106.283V31.0119H114.107V37.8609H116.836V31.0749C116.836 29.9624 116.269 29.421 115.108 29.421ZM109.587 28.5719H106.279V22.4905H109.587C112.576 22.4905 113.885 22.7797 113.885 25.5312C113.888 28.2715 112.509 28.5719 109.587 28.5719Z" fill="white"/>
<path d="M117.49 20.0542V22.4905H123.446V37.8609H126.149V22.4905H132.056V20.0542H117.49Z" fill="white"/>
<path d="M144.978 22.4905V20.0542H133.657V37.8609H144.978V35.4209H136.386V30.1627H143.769V27.7264H136.386V22.4905H144.978Z" fill="white"/>
<path d="M159.558 30.8376C159.191 33.9488 157.285 35.6657 154.192 35.6657C150.666 35.6657 148.563 33.1552 148.563 28.9465C148.563 24.7525 150.669 22.2495 154.192 22.2495C157.285 22.2495 159.191 23.9553 159.558 27.0516L159.595 27.3816H162.331L162.28 26.9663C161.738 22.4868 158.716 19.8132 154.188 19.8132C149.19 19.8132 145.83 23.4843 145.83 28.9465C145.83 34.4234 149.19 38.1057 154.188 38.1057C158.716 38.1057 161.738 35.4209 162.28 30.9266L162.328 30.5113H159.591L159.558 30.8376Z" fill="white"/>
<path d="M176.396 20.0542V27.8451H167.074V20.0542H164.345V37.8609H167.074V30.2851H176.396V37.8609H179.103V20.0542H176.396Z" fill="white"/>
<path d="M96.3554 20.0542H91.7461L85.9873 37.8609H88.7573L90.8858 31.1787H97.1934L99.3479 37.8609H102.092L96.3554 20.0542ZM91.6794 28.7425L93.8709 21.8564C93.9228 21.6969 94.1453 21.6969 94.1972 21.8527L94.3047 22.1753L96.4147 28.7425H91.6794Z" fill="white"/>
<path d="M79.9249 20.0542L75.0597 36.5593L70.2206 20.0542H65.5742V37.8609H68.3034V27.1034C68.3034 26.3618 68.1959 25.6239 67.9808 24.9119L66.9611 21.5078C66.924 21.3891 66.9388 21.2631 66.9982 21.1518C67.0575 21.0406 67.1539 20.9627 67.2726 20.9256C67.3171 20.9108 67.3616 20.9071 67.4061 20.9071C67.4802 20.9071 67.5581 20.9256 67.6248 20.9627C67.7361 21.022 67.814 21.1184 67.851 21.2408L68.3034 22.7426V22.7315L68.5704 23.6252L69.3677 26.2802C69.3751 26.3099 69.3825 26.3433 69.3862 26.3729L72.7866 37.8571H77.3366L80.7332 26.3841C80.7369 26.3507 80.7407 26.3136 80.7518 26.2802L81.8049 22.7686L81.816 22.7278L82.2647 21.2334C82.3018 21.1147 82.3797 21.0146 82.4909 20.9553C82.5577 20.9182 82.6355 20.8997 82.7097 20.8997C82.7542 20.8997 82.7987 20.9071 82.8432 20.9182C82.9619 20.9553 83.062 21.0332 83.1176 21.1444C83.1769 21.2556 83.1881 21.378 83.1547 21.5004L82.1386 24.8934C81.9236 25.6053 81.816 26.3433 81.816 27.0849V37.8534H84.5452V20.0542H79.9249Z" fill="white"/>
<path d="M63.2021 9.44123C64.1032 9.48202 64.5519 9.927 64.5519 10.7762C64.5519 11.1433 64.4443 11.4362 64.2293 11.655C64.0142 11.8738 63.7287 11.985 63.3727 11.985H61.2998L61.6595 11.3102H63.3096C63.6879 11.3102 63.8733 11.121 63.8733 10.7465C63.8733 10.2867 63.5803 10.0568 62.9944 10.0568C62.6904 10.0568 62.4123 10.1309 62.1601 10.2756V9.64889L63.4802 8.18787H64.3146L63.2021 9.44123Z" fill="white"/>
<path d="M98.2069 6.25977V13.3053C98.2069 15.6229 96.668 17.2323 94.5395 17.5141L93.8535 16.8058C94.7286 16.8058 96.4307 16.2607 96.4307 13.3053V7.20535L98.2069 6.25977Z" fill="white"/>
<path d="M106.817 14.0357V14.5326C106.817 14.6031 106.769 14.6735 106.676 14.6735H103.554V4.52798L105.352 3.5824V13.8948H106.676C106.769 13.8948 106.817 13.9653 106.817 14.0357Z" fill="white"/>
<path d="M164.349 14.0356V14.5325C164.349 14.603 164.301 14.6734 164.208 14.6734H162.814C162.339 14.6734 161.917 14.3879 161.75 13.9874L161.086 14.6734H159.05C157.656 14.6734 156.425 14.1283 155.62 13.1827C155.383 14.1283 154.767 14.6734 153.325 14.6734H106.676C106.58 14.6734 106.535 14.603 106.535 14.5325V14.0356C106.535 13.9652 106.583 13.8947 106.676 13.8947H153.329C154.678 13.8947 154.701 13.3051 154.678 12.048V10.5833V10.4646C154.678 7.90971 156.618 6.25586 159.054 6.25586C161.468 6.25586 163.407 7.90971 163.407 10.4646V13.8947H164.212C164.301 13.8947 164.349 13.9652 164.349 14.0356ZM161.702 13.8947C161.653 13.776 161.631 13.6351 161.631 13.4942V10.4683C161.631 7.53518 159.929 7.03828 159.054 7.03828C158.201 7.03828 156.477 7.53518 156.477 10.4683C156.477 13.4015 158.205 13.8984 159.054 13.8984H161.702V13.8947Z" fill="white"/>
<path d="M174.941 13.8947H179.105V14.6734H164.205C164.113 14.6734 164.064 14.603 164.064 14.5325V14.0356C164.064 13.9652 164.113 13.8947 164.205 13.8947H172.293C171.251 13.1605 170.565 11.9776 170.565 10.4646C170.565 7.90971 172.504 6.25586 174.941 6.25586C176.902 6.25586 178.537 7.36831 179.105 9.14082L177.495 9.9937C177.329 7.50922 175.745 7.03828 174.941 7.03828C174.065 7.03828 172.363 7.53518 172.363 10.4683C172.363 13.4015 174.065 13.8947 174.941 13.8947Z" fill="white"/>
<path d="M89.8653 4.10525L88.7306 2.9928L87.5959 4.10525L88.7306 5.23995L89.8653 4.10525ZM92.372 4.10525L91.2596 2.9928L90.1249 4.10525L91.2596 5.23995L92.372 4.10525ZM89.8912 13.4944C89.8912 13.6353 89.9135 13.7799 89.9617 13.8948H87.0508V14.5326C87.0508 14.6031 87.099 14.6736 87.1917 14.6736H89.3424L90.0062 13.9875C90.1953 14.388 90.6218 14.6736 91.0704 14.6736H91.686V6.11137L89.8875 7.05696V13.4944H89.8912Z" fill="white"/>
<path d="M53.9909 9.12967L52.1924 8.18408V14.6771H52.8079C53.2566 14.6771 53.6831 14.3916 53.8722 13.9911L54.536 14.6771H65.9052C66.0016 14.6771 66.0461 14.6066 66.0461 14.5362V13.8984H53.9204C53.9686 13.7797 53.9909 13.6388 53.9909 13.4979V9.12967Z" fill="white"/>
<path d="M74.2931 13.8948V3.5824L72.5206 4.52798V13.4906C72.5206 13.6316 72.5428 13.7762 72.5911 13.8911H52.1924V14.6698H71.9755L72.6393 13.9838C72.8284 14.3843 73.2289 14.6698 73.7035 14.6698H87.1976C87.268 14.6698 87.3385 14.5994 87.3385 14.5289V13.8911H74.2931V13.8948Z" fill="white"/>
</svg>
