<svg width="20" height="20" viewBox="0 0 20 20" fill="none" xmlns="http://www.w3.org/2000/svg">
<g clip-path="url(#clip0_589_2071)">
<path d="M15.3336 6.14875C15.1828 6.10575 15.0452 6.02574 14.9333 5.916C14.8214 5.80626 14.7387 5.67027 14.6927 5.52041C14.4375 4.65545 14.0095 3.85126 13.4345 3.15649C12.8596 2.46173 12.1496 1.89084 11.3476 1.47838C10.5457 1.06592 9.66836 0.820453 8.76879 0.756841C7.86921 0.693229 6.96608 0.812792 6.11405 1.10829C5.26201 1.4038 4.47879 1.8691 3.81178 2.47604C3.14476 3.08297 2.60783 3.81893 2.23345 4.63938C1.85908 5.45982 1.65506 6.34769 1.63374 7.24926C1.61241 8.15083 1.77423 9.04735 2.10939 9.88458C2.18639 10.0608 2.20296 10.2575 2.15654 10.4441C2.11012 10.6307 2.0033 10.7967 1.85272 10.9162C1.18916 11.4087 0.671095 12.0715 0.35335 12.8343C0.0356046 13.5971 -0.0699962 14.4317 0.047724 15.2496C0.231435 16.3553 0.805494 17.3585 1.66571 18.0772C2.52592 18.7958 3.61528 19.1822 4.73606 19.1662H9.16689C9.3879 19.1662 9.59986 19.0784 9.75615 18.9222C9.91243 18.7659 10.0002 18.5539 10.0002 18.3329C10.0002 18.1119 9.91243 17.8999 9.75615 17.7437C9.59986 17.5874 9.3879 17.4996 9.16689 17.4996H4.73606C4.01629 17.517 3.31408 17.2761 2.75669 16.8204C2.1993 16.3646 1.82362 15.7243 1.69772 15.0154C1.61789 14.4944 1.68259 13.9614 1.88478 13.4746C2.08698 12.9877 2.4189 12.5658 2.84439 12.2546C3.29132 11.9206 3.61463 11.4475 3.7635 10.9098C3.91238 10.372 3.8784 9.80007 3.66689 9.28375C3.24868 8.17933 3.22718 6.96393 3.60606 5.84541C3.90872 4.96923 4.45071 4.19531 5.17063 3.61134C5.89054 3.02736 6.75962 2.65667 7.67939 2.54125C7.89274 2.51378 8.10761 2.49986 8.32272 2.49958C9.40027 2.49603 10.45 2.84161 11.3147 3.48457C12.1794 4.12754 12.8126 5.03331 13.1194 6.06625C13.2392 6.45989 13.455 6.81756 13.7474 7.10704C14.0398 7.39653 14.3996 7.60875 14.7944 7.72458C15.7606 8.01035 16.6165 8.58447 17.2475 9.3701C17.8784 10.1557 18.2543 11.1153 18.3248 12.1205C18.3953 13.1256 18.1571 14.1283 17.642 14.9944C17.127 15.8604 16.3596 16.5484 15.4427 16.9662C15.307 17.0357 15.1936 17.1419 15.1153 17.2728C15.0371 17.4036 14.9972 17.5538 15.0002 17.7062C14.9986 17.8441 15.0316 17.9802 15.0963 18.102C15.161 18.2238 15.2552 18.3274 15.3703 18.4033C15.4855 18.4792 15.6178 18.525 15.7553 18.5364C15.8927 18.5479 16.0308 18.5246 16.1569 18.4687C19.6019 16.8129 21.4736 12.4571 18.5569 8.24875C17.7538 7.20118 16.6163 6.4601 15.3336 6.14875Z" fill="black"/>
<path d="M15.589 13.9224C15.7452 13.7661 15.833 13.5542 15.833 13.3332C15.833 13.1123 15.7452 12.9003 15.589 12.7441L14.2674 11.4224C13.7985 10.9537 13.1628 10.6904 12.4999 10.6904C11.8369 10.6904 11.2012 10.9537 10.7324 11.4224L9.41068 12.7441C9.25889 12.9012 9.17489 13.1117 9.17679 13.3302C9.17869 13.5487 9.26633 13.7577 9.42084 13.9122C9.57534 14.0668 9.78435 14.1544 10.0029 14.1563C10.2213 14.1582 10.4318 14.0742 10.589 13.9224L11.6665 12.8449V19.1666C11.6665 19.3876 11.7543 19.5995 11.9106 19.7558C12.0669 19.9121 12.2788 19.9999 12.4999 19.9999C12.7209 19.9999 12.9328 19.9121 13.0891 19.7558C13.2454 19.5995 13.3332 19.3876 13.3332 19.1666V12.8449L14.4107 13.9224C14.567 14.0786 14.7789 14.1664 14.9999 14.1664C15.2208 14.1664 15.4327 14.0786 15.589 13.9224Z" fill="black"/>
</g>
<defs>
<clipPath id="clip0_589_2071">
<rect width="20" height="20" fill="white"/>
</clipPath>
</defs>
</svg>
