<svg width="18" height="16" viewBox="0 0 18 16" fill="none" xmlns="http://www.w3.org/2000/svg">
<path d="M2.00019 16V5.09998L0.242188 1.23498L1.15819 0.807983L3.08519 5.04998H14.9152L16.8422 0.807983L17.7582 1.23498L16.0002 5.09998V16H2.00019ZM7.00019 9.49998H11.0002C11.1422 9.49998 11.2609 9.45198 11.3562 9.35598C11.4522 9.25998 11.5002 9.14098 11.5002 8.99898C11.5002 8.85698 11.4522 8.73832 11.3562 8.64298C11.2609 8.54765 11.1422 8.49998 11.0002 8.49998H7.00019C6.85819 8.49998 6.73952 8.54798 6.64419 8.64398C6.54819 8.73998 6.50019 8.85898 6.50019 9.00098C6.50019 9.14298 6.54819 9.26165 6.64419 9.35698C6.74019 9.45232 6.85885 9.49998 7.00019 9.49998ZM3.00019 15H15.0002V6.04998H3.00019V15Z" fill="white"/>
</svg>
