<svg width="25" height="25" viewBox="0 0 25 25" fill="none" xmlns="http://www.w3.org/2000/svg">
<path d="M2.5 8.12378C2.5 4.56378 3.25 3.2638 6.02 2.9538C6.54 2.8838 7.11 2.86377 7.77 2.86377H17.24C17.89 2.86377 18.47 2.8838 18.99 2.9538C21.76 3.2638 22.51 4.56378 22.51 8.12378V14.4438C22.51 18.0038 21.76 19.3038 18.99 19.6138C18.47 19.6838 17.9 19.7038 17.24 19.7038H7.77C7.12 19.7038 6.54 19.6838 6.02 19.6138C3.25 19.3038 2.5 18.0038 2.5 14.4438V11.9637" stroke="white" stroke-width="1.5" stroke-linecap="round" stroke-linejoin="round"/>
<path d="M14.0801 9.18359H17.7601" stroke="white" stroke-width="1.5" stroke-linecap="round" stroke-linejoin="round"/>
<path d="M7.24023 14.9736H7.26022H17.7702" stroke="white" stroke-width="1.5" stroke-linecap="round" stroke-linejoin="round"/>
<path d="M7.5 22.8638H17.5" stroke="white" stroke-width="1.5" stroke-linecap="round" stroke-linejoin="round"/>
<path d="M7.6947 9.16357H7.70368" stroke="white" stroke-width="2" stroke-linecap="round" stroke-linejoin="round"/>
<path d="M10.9945 9.16357H11.0035" stroke="white" stroke-width="2" stroke-linecap="round" stroke-linejoin="round"/>
</svg>