<svg width="12" height="16" viewBox="0 0 12 16" fill="none" xmlns="http://www.w3.org/2000/svg">
<path d="M10.3204 8.00006C9.76106 7.53121 9.05 7.28235 8.32038 7.30006H3.63038C3.41654 7.30546 3.20382 7.26765 3.00493 7.18891C2.80605 7.11017 2.6251 6.9921 2.47291 6.84178C2.32073 6.69147 2.20044 6.51199 2.11924 6.31409C2.03805 6.11619 1.99762 5.90395 2.00038 5.69006C1.99517 5.60681 1.99517 5.52331 2.00038 5.44006C2.06344 5.05786 2.26385 4.71183 2.56397 4.46694C2.8641 4.22205 3.24331 4.09515 3.63038 4.11006H8.25038C8.62724 4.10973 8.99197 4.24326 9.27952 4.48686C9.56708 4.73046 9.75876 5.06827 9.82038 5.44006H11.3204C11.2576 4.66899 10.9069 3.9498 10.3381 3.42545C9.7693 2.90111 9.024 2.61002 8.25038 2.61006H6.67038V0.310059H5.42038V2.61006H3.63038C2.85676 2.61002 2.11146 2.90111 1.54265 3.42545C0.973837 3.9498 0.623176 4.66899 0.560382 5.44006C0.555393 5.52332 0.555393 5.6068 0.560382 5.69006C0.560382 6.09322 0.63979 6.49243 0.794072 6.8649C0.948354 7.23737 1.17449 7.5758 1.45956 7.86088C2.0353 8.43661 2.81617 8.76006 3.63038 8.76006H8.37038C8.58253 8.75472 8.79359 8.7919 8.99114 8.86941C9.18869 8.94693 9.36872 9.0632 9.52063 9.21138C9.67254 9.35956 9.79325 9.53665 9.87564 9.73221C9.95804 9.92777 10.0004 10.1378 10.0004 10.3501C10.0108 10.4632 10.0108 10.577 10.0004 10.6901C9.92098 11.0419 9.72431 11.3563 9.44265 11.5816C9.16099 11.807 8.81108 11.9298 8.45038 11.9301H3.75038C3.38968 11.9298 3.03978 11.807 2.75812 11.5816C2.47646 11.3563 2.27978 11.0419 2.20038 10.6901H0.690382C0.77632 11.4414 1.13568 12.1349 1.7 12.6383C2.26431 13.1418 2.99413 13.42 3.75038 13.4201H5.42038V15.6901H6.67038V13.4201H8.37038C9.12663 13.42 9.85645 13.1418 10.4208 12.6383C10.9851 12.1349 11.3444 11.4414 11.4304 10.6901V10.3501C11.4292 9.90089 11.3291 9.4575 11.1373 9.05136C10.9454 8.64522 10.6665 8.28629 10.3204 8.00006Z" fill="white"/>
</svg>
