<svg width="22" height="18" viewBox="0 0 22 18" fill="none" xmlns="http://www.w3.org/2000/svg">
<path d="M4.07 1.50002L4.4075 2.16752L4.82 3.00002H8V6.75002H2V1.50002H4.07ZM4.535 1.8168e-05H1.25C1.05109 1.8168e-05 0.860322 0.0790359 0.71967 0.219688C0.579018 0.360341 0.5 0.551106 0.5 0.750018V7.50002C0.5 7.69893 0.579018 7.8897 0.71967 8.03035C0.860322 8.171 1.05109 8.25002 1.25 8.25002H8.75C8.94891 8.25002 9.13968 8.171 9.28033 8.03035C9.42098 7.8897 9.5 7.69893 9.5 7.50002V2.25002C9.5 2.05111 9.42098 1.86034 9.28033 1.71969C9.13968 1.57904 8.94891 1.50002 8.75 1.50002H5.75L5.21 0.412518C5.1471 0.287692 5.05058 0.182925 4.93131 0.110039C4.81204 0.0371521 4.67477 -0.000954574 4.535 1.8168e-05ZM16.07 1.50002L16.4075 2.16752L16.82 3.00002H20V6.75002H14V1.50002H16.07ZM16.535 1.8168e-05H13.25C13.0511 1.8168e-05 12.8603 0.0790359 12.7197 0.219688C12.579 0.360341 12.5 0.551106 12.5 0.750018V7.50002C12.5 7.69893 12.579 7.8897 12.7197 8.03035C12.8603 8.171 13.0511 8.25002 13.25 8.25002H20.75C20.9489 8.25002 21.1397 8.171 21.2803 8.03035C21.421 7.8897 21.5 7.69893 21.5 7.50002V2.25002C21.5 2.05111 21.421 1.86034 21.2803 1.71969C21.1397 1.57904 20.9489 1.50002 20.75 1.50002H17.75L17.21 0.412518C17.1471 0.287692 17.0506 0.182925 16.9313 0.110039C16.812 0.0371521 16.6748 -0.000954574 16.535 1.8168e-05ZM4.07 11.25L4.4075 11.9175L4.82 12.75H8V16.5H2V11.25H4.07ZM4.535 9.75002H1.25C1.05109 9.75002 0.860322 9.82903 0.71967 9.96969C0.579018 10.1103 0.5 10.3011 0.5 10.5V17.25C0.5 17.4489 0.579018 17.6397 0.71967 17.7803C0.860322 17.921 1.05109 18 1.25 18H8.75C8.94891 18 9.13968 17.921 9.28033 17.7803C9.42098 17.6397 9.5 17.4489 9.5 17.25V12C9.5 11.8011 9.42098 11.6103 9.28033 11.4697C9.13968 11.329 8.94891 11.25 8.75 11.25H5.75L5.21 10.1625C5.1471 10.0377 5.05058 9.93293 4.93131 9.86004C4.81204 9.78715 4.67477 9.74905 4.535 9.75002ZM16.07 11.25L16.4075 11.9175L16.82 12.75H20V16.5H14V11.25H16.07ZM16.535 9.75002H13.25C13.0511 9.75002 12.8603 9.82903 12.7197 9.96969C12.579 10.1103 12.5 10.3011 12.5 10.5V17.25C12.5 17.4489 12.579 17.6397 12.7197 17.7803C12.8603 17.921 13.0511 18 13.25 18H20.75C20.9489 18 21.1397 17.921 21.2803 17.7803C21.421 17.6397 21.5 17.4489 21.5 17.25V12C21.5 11.8011 21.421 11.6103 21.2803 11.4697C21.1397 11.329 20.9489 11.25 20.75 11.25H17.75L17.21 10.1625C17.1471 10.0377 17.0506 9.93293 16.9313 9.86004C16.812 9.78715 16.6748 9.74905 16.535 9.75002Z" fill="white"/>
</svg>
