<svg width="24" height="20" viewBox="0 0 24 20" fill="none" xmlns="http://www.w3.org/2000/svg">
<path d="M7.74885 14.2857L16.3203 5.7143M0.857422 16.8572C0.857421 17.3112 1.03756 17.7467 1.35831 18.0681C1.67906 18.3895 2.11422 18.5705 2.56828 18.5714H21.4323C21.8863 18.5705 22.3215 18.3895 22.6422 18.0681C22.963 17.7467 23.1431 17.3112 23.1431 16.8572V13.3703C22.403 13.1696 21.7494 12.7308 21.2835 12.1217C20.8175 11.5125 20.5651 10.7669 20.5651 10C20.5651 9.2331 20.8175 8.48752 21.2835 7.87838C21.7494 7.26925 22.403 6.83045 23.1431 6.62973V3.14287C23.1431 2.68881 22.963 2.25329 22.6422 1.9319C22.3215 1.61051 21.8863 1.4295 21.4323 1.42859H2.56828C2.11422 1.4295 1.67906 1.61051 1.35831 1.9319C1.03756 2.25329 0.857421 2.68881 0.857422 3.14287V6.62287C1.60351 6.81911 2.26362 7.25688 2.73467 7.86784C3.20571 8.4788 3.46118 9.22855 3.46118 10C3.46118 10.7715 3.20571 11.5212 2.73467 12.1322C2.26362 12.7432 1.60351 13.1809 0.857422 13.3772V16.8572Z" stroke="white" stroke-width="2" stroke-linecap="round" stroke-linejoin="round"/>
</svg>
