<svg width="18" height="19" viewBox="0 0 18 19" fill="none" xmlns="http://www.w3.org/2000/svg">
<path d="M7.6325 0.82996C8.02033 0.51927 8.50244 0.349976 8.99937 0.349976C9.49631 0.349976 9.97842 0.51927 10.3663 0.82996L16.9288 6.07996C17.4475 6.49496 17.75 7.12371 17.75 7.78871V16.5625C17.75 17.1426 17.5195 17.699 17.1093 18.1093C16.6991 18.5195 16.1427 18.75 15.5625 18.75H11.1875C10.9389 18.75 10.7004 18.6512 10.5246 18.4754C10.3488 18.2996 10.25 18.0611 10.25 17.8125V11.25H7.75V17.8125C7.75 18.0611 7.65123 18.2996 7.47541 18.4754C7.2996 18.6512 7.06114 18.75 6.8125 18.75H2.4375C1.85734 18.75 1.30094 18.5195 0.890704 18.1093C0.480468 17.699 0.25 17.1426 0.25 16.5625V7.78746C0.25 7.12371 0.5525 6.49496 1.07125 6.07996L7.6325 0.82996ZM9.195 2.29371C9.13962 2.24949 9.07086 2.22541 9 2.22541C8.92914 2.22541 8.86038 2.24949 8.805 2.29371L2.2425 7.54371C2.20574 7.57307 2.17607 7.61035 2.15573 7.65277C2.13538 7.69519 2.12488 7.74166 2.125 7.78871V16.5625C2.125 16.735 2.265 16.875 2.4375 16.875H5.875V10.3125C5.875 10.0638 5.97377 9.82536 6.14959 9.64955C6.3254 9.47373 6.56386 9.37496 6.8125 9.37496H11.1875C11.4361 9.37496 11.6746 9.47373 11.8504 9.64955C12.0262 9.82536 12.125 10.0638 12.125 10.3125V16.875H15.5625C15.6454 16.875 15.7249 16.842 15.7835 16.7834C15.8421 16.7248 15.875 16.6453 15.875 16.5625V7.78746C15.8749 7.74062 15.8643 7.6944 15.844 7.65221C15.8237 7.61002 15.7941 7.57294 15.7575 7.54371L9.195 2.29371Z" fill="white"/>
</svg>
